<svg width="36" height="36" viewBox="0 0 36 36" fill="none" xmlns="http://www.w3.org/2000/svg">
<path d="M3.41656 20.9167L25.5541 20.9167L15.9291 30.5125C15.3798 31.0617 15.0713 31.8066 15.0713 32.5834C15.0713 33.3601 15.3798 34.105 15.9291 34.6542C16.4783 35.2034 17.2232 35.512 17.9999 35.512C18.7766 35.512 19.5215 35.2034 20.0707 34.6542L34.6541 20.0709C34.9196 19.7935 35.1277 19.4664 35.2666 19.1084C35.5583 18.3983 35.5583 17.6018 35.2666 16.8917C35.1277 16.5337 34.9196 16.2066 34.6541 15.9292L20.0707 1.34587C19.7996 1.07249 19.477 0.855505 19.1216 0.70743C18.7662 0.559355 18.3849 0.483122 17.9999 0.483122C17.6149 0.483122 17.2336 0.559355 16.8782 0.70743C16.5228 0.855505 16.2002 1.07249 15.9291 1.34587C15.6557 1.61701 15.4387 1.93959 15.2906 2.29502C15.1426 2.65044 15.0663 3.03166 15.0663 3.4167C15.0663 3.80173 15.1426 4.18296 15.2906 4.53838C15.4387 4.8938 15.6557 5.21639 15.9291 5.48753L25.5541 15.0834L3.41656 15.0834C2.64301 15.0834 1.90114 15.3907 1.35417 15.9376C0.807184 16.4846 0.499895 17.2265 0.499895 18C0.499895 18.7736 0.807184 19.5154 1.35417 20.0624C1.90114 20.6094 2.64301 20.9167 3.41656 20.9167Z" fill="#F58634"/>
</svg>
