<svg width="12" height="14" viewBox="0 0 12 14" fill="none" xmlns="http://www.w3.org/2000/svg">
<path d="M1.0001 8L8.5901 8L5.2901 11.29C5.1018 11.4783 4.99601 11.7337 4.99601 12C4.99601 12.2663 5.1018 12.5217 5.2901 12.71C5.47841 12.8983 5.7338 13.0041 6.0001 13.0041C6.26641 13.0041 6.5218 12.8983 6.7101 12.71L11.7101 7.71C11.8011 7.61489 11.8725 7.50275 11.9201 7.38C12.0201 7.13654 12.0201 6.86346 11.9201 6.62C11.8725 6.49725 11.8011 6.3851 11.7101 6.29L6.7101 1.29C6.61714 1.19627 6.50654 1.12187 6.38468 1.07111C6.26282 1.02034 6.13212 0.994199 6.0001 0.994199C5.86809 0.994199 5.73739 1.02034 5.61553 1.07111C5.49367 1.12187 5.38307 1.19627 5.2901 1.29C5.19638 1.38296 5.12198 1.49356 5.07121 1.61542C5.02044 1.73728 4.99431 1.86799 4.99431 2C4.99431 2.13201 5.02044 2.26271 5.07121 2.38457C5.12198 2.50643 5.19638 2.61703 5.2901 2.71L8.5901 6L1.0001 6C0.734888 6 0.480533 6.10535 0.292997 6.29289C0.105461 6.48043 0.000104499 6.73478 0.000104475 7C0.000104452 7.26521 0.105461 7.51957 0.292997 7.7071C0.480533 7.89464 0.734888 8 1.0001 8Z" fill="#F58634"/>
</svg>
